# xmcd
# 
# Track frame offsets:
#     150
#     13003
#     32136
#     50148
#     64433
#     76866
#     94556
#     115091
#     131686
#     145628
#     157240
# 
# Disc length: 2468
# 
# Revision: 0
# Processed by: cddbd v1.5.2PL0 Copyright (c) Steve Scherf et al.
# Submitted via: fre:ac v1.0.31
# 
DISCID=9409a20b
DTITLE=FRAN HEALEY - WRECKORDER
DYEAR=2010
DGENRE=Indie Rock
TTITLE0=In the morning
TTITLE1=Anything
TTITLE2=Sing me to sleep
TTITLE3=Fly in the ointment
TTITLE4=As it comes
TTITLE5=Buttercups
TTITLE6=Shadow boxing
TTITLE7=Holiday
TTITLE8=Rocking chair
TTITLE9=Moonshine
TTITLE10=Sierra Leone
EXTD=
EXTT0=
EXTT1=
EXTT2=
EXTT3=
EXTT4=
EXTT5=
EXTT6=
EXTT7=
EXTT8=
EXTT9=
EXTT10=
PLAYORDER=
